<svg width="18" height="20" viewBox="0 0 18 20" fill="none" xmlns="http://www.w3.org/2000/svg">
<path d="M17 9.43839L9.43557 17.4644C8.50887 18.4476 7.25199 19 5.94144 19C4.63089 19 3.37401 18.4476 2.44731 17.4644C1.52061 16.4811 1 15.1476 1 13.7571C1 12.3665 1.52061 11.033 2.44731 10.0497L10.0117 2.02375C10.6295 1.36825 11.4675 1 12.3412 1C13.2149 1 14.0528 1.36825 14.6706 2.02375C15.2884 2.67924 15.6355 3.56829 15.6355 4.4953C15.6355 5.42231 15.2884 6.31135 14.6706 6.96685L7.09792 14.9928C6.78902 15.3206 6.37006 15.5047 5.93321 15.5047C5.49636 15.5047 5.0774 15.3206 4.7685 14.9928C4.4596 14.6651 4.28606 14.2206 4.28606 13.7571C4.28606 13.2935 4.4596 12.849 4.7685 12.5213L11.7568 5.11537" stroke="#D15D36" stroke-width="1.5" stroke-linecap="round" stroke-linejoin="round"/>
</svg>
