<svg width="39" height="30" viewBox="0 0 39 30" fill="none" xmlns="http://www.w3.org/2000/svg">
<path d="M30.6814 11.7232V3.69545C30.6814 1.93342 29.2486 0.500488 27.4865 0.500488H3.52448C1.76244 0.500488 0.32959 1.93334 0.32959 3.69545V19.6701C0.32959 21.4321 1.76244 22.8651 3.52455 22.8651H21.4373C22.4838 26.5472 25.8696 29.2549 29.8828 29.2549C34.7274 29.2549 38.6688 25.3135 38.6688 20.4689C38.6688 15.8938 35.1527 12.1287 30.6814 11.7232ZM3.52455 2.09793H27.4866C27.5198 2.09793 27.5477 2.11493 27.5805 2.11695L16.1623 11.4893C15.7551 11.7459 15.1686 11.6913 14.9026 11.5299L3.43162 2.1168C3.46405 2.11485 3.4916 2.09793 3.52455 2.09793ZM21.1372 21.2675H3.52455C2.64395 21.2675 1.92711 20.5507 1.92711 19.6701V3.69545C1.92711 3.46923 1.97705 3.2556 2.06227 3.06045L13.9596 12.817C14.4245 13.1204 14.9588 13.2803 15.5056 13.2803C16.0314 13.2803 16.5454 13.1321 16.9978 12.8513C17.043 12.8271 17.0859 12.7983 17.1265 12.7648L28.9488 3.06031C29.0341 3.2556 29.0841 3.46923 29.0841 3.69552V11.7233C24.6128 12.1287 21.0967 15.8938 21.0967 20.4689C21.0966 20.7384 21.1133 21.0041 21.1372 21.2675ZM29.8828 27.6575C25.9187 27.6575 22.6942 24.4328 22.6942 20.4689C22.6942 16.5049 25.9188 13.2803 29.8828 13.2803C33.8468 13.2803 37.0714 16.5049 37.0714 20.4689C37.0714 24.4328 33.8468 27.6575 29.8828 27.6575Z" fill="white"/>
<path d="M30.6817 20.1379V15.6763C30.6817 15.2348 30.3244 14.8775 29.8829 14.8775C29.4414 14.8775 29.0842 15.2348 29.0842 15.6763V20.4687C29.0842 20.6808 29.1685 20.8837 29.3182 21.0334L31.7144 23.4296C31.8704 23.5856 32.0748 23.6636 32.2792 23.6636C32.4835 23.6636 32.6879 23.5856 32.8439 23.4296C33.156 23.1176 33.156 22.6121 32.8439 22.3002L30.6817 20.1379Z" fill="white"/>
</svg>
