<svg width="36" height="25" viewBox="0 0 36 25" fill="none" xmlns="http://www.w3.org/2000/svg">
<path d="M34.1934 23.4877C34.0932 23.4877 33.9929 23.4759 33.8955 23.4535L1.67031 15.7895C1.21057 15.6798 0.894043 15.3332 0.894043 14.9394V9.6335C0.894043 9.23969 1.21057 8.89304 1.67031 8.78338L33.8955 1.11934C34.2192 1.04506 34.5701 1.09458 34.8394 1.26201C35.1086 1.42944 35.2676 1.69238 35.2676 1.96946V22.6034C35.2676 22.8805 35.1086 23.1434 34.8394 23.3109C34.6503 23.4264 34.424 23.4877 34.1934 23.4877ZM3.04239 14.2744L33.1192 21.4279V3.14501L3.04239 10.2985V14.2744Z" fill="white"/>
<path d="M34.1933 24.0773C33.6004 24.0773 33.1192 23.6811 33.1192 23.193V1.37992C33.1192 0.891777 33.6004 0.495605 34.1933 0.495605C34.7863 0.495605 35.2675 0.891777 35.2675 1.37992V23.193C35.2675 23.6811 34.7863 24.0773 34.1933 24.0773Z" fill="white"/>
<path d="M1.96822 17.0028C1.37527 17.0028 0.894043 16.6066 0.894043 16.1185V8.45444C0.894043 7.9663 1.37527 7.57013 1.96822 7.57013C2.56116 7.57013 3.04239 7.9663 3.04239 8.45444V16.1185C3.04239 16.6066 2.56116 17.0028 1.96822 17.0028Z" fill="white"/>
<path d="M12.7105 22.8983C9.3548 22.8983 6.62353 20.6509 6.62353 17.8872C6.62353 17.353 6.71949 16.846 6.90855 16.3803C7.09617 15.9169 7.69914 15.6658 8.26773 15.8226C8.8306 15.977 9.13423 16.4782 8.94661 16.9415C8.8306 17.2245 8.77188 17.544 8.77188 17.8872C8.77188 19.6758 10.5393 21.1296 12.7105 21.1296C14.5166 21.1296 16.125 20.0826 16.5331 18.6406C16.6678 18.1666 17.2464 17.8671 17.8236 17.9803C18.4022 18.0923 18.7603 18.5675 18.6256 19.0427C17.9811 21.3124 15.5492 22.8983 12.7105 22.8983Z" fill="white"/>
</svg>
