<svg class="moon icon-new tag-x" width="6" height="6" viewBox="0 0 1024 1024" xmlns="http://www.w3.org/2000/svg" style="display: inline-block; vertical-align: middle;"><path d="M25.205 25.205c33.606-33.606 88.093-33.606 121.698 0l365.151 365.15 365.151-365.15c33.606-33.606 88.092-33.606 121.698 0s33.606 88.093 0 121.698l-365.151 365.151 365.043 365.043c33.606 33.606 33.606 88.092 0 121.698s-88.092 33.606-121.698 0l-365.043-365.043-365.043 365.043c-33.606 33.606-88.092 33.606-121.698 0s-33.606-88.092 0-121.698l365.042-365.043-365.15-365.151c-33.606-33.606-33.606-88.092-0-121.698z" style="fill: rgb(255, 255, 255);"></path></svg>