<svg width="22" height="13" viewBox="0 0 22 13" fill="none" xmlns="http://www.w3.org/2000/svg">
<path d="M0.259186 10.6778L4.48843 1.12712C4.78328 0.468534 5.32042 0.0697327 6.04863 0.0697327H6.20462C6.93237 0.0697327 7.45254 0.468458 7.7471 1.12712L11.9765 10.6778C12.0632 10.8684 12.1153 11.0417 12.1153 11.2151C12.1153 11.9257 11.5606 12.4977 10.8499 12.4977C10.2259 12.4977 9.80982 12.1338 9.56724 11.579L8.75266 9.67249H3.41399L2.56465 11.6658C2.33926 12.1858 1.88871 12.4977 1.334 12.4977C0.640412 12.4977 0.103271 11.9431 0.103271 11.2497C0.103271 11.0591 0.172517 10.8684 0.259186 10.6778ZM7.7646 7.31514L6.08318 3.31113L4.40191 7.31514H7.7646Z" fill="#1E252B"/>
<path d="M13.3794 9.72434V9.68964C13.3794 7.66169 14.9221 6.72567 17.1234 6.72567C18.0595 6.72567 18.7356 6.88166 19.3942 7.10705V6.95106C19.3942 5.85897 18.7181 5.25244 17.4008 5.25244C16.6728 5.25244 16.0835 5.35638 15.5808 5.51245C15.4249 5.56442 15.3208 5.58169 15.1993 5.58169C14.5928 5.58169 14.1075 5.11372 14.1075 4.50711C14.1075 4.03906 14.4021 3.64041 14.818 3.48434C15.65 3.17236 16.5515 2.99902 17.7821 2.99902C19.2206 2.99902 20.2608 3.38032 20.9195 4.03898C21.6128 4.73227 21.9248 5.75503 21.9248 7.00303V11.2323C21.9248 11.9431 21.3528 12.4976 20.6421 12.4976C19.8794 12.4976 19.3768 11.9603 19.3768 11.4056V11.3883C18.7355 12.0989 17.8513 12.5669 16.5688 12.5669C14.818 12.567 13.3794 11.5618 13.3794 9.72434ZM19.4287 9.11765V8.64968C18.9781 8.44171 18.3887 8.303 17.7474 8.303C16.6206 8.303 15.9274 8.7537 15.9274 9.58562V9.62032C15.9274 10.331 16.5168 10.7469 17.366 10.7469C18.5967 10.747 19.4287 10.0711 19.4287 9.11765Z" fill="#1E252B"/>
</svg>
