<svg width="15" height="15" viewBox="0 0 15 15" fill="none" xmlns="http://www.w3.org/2000/svg">
<path d="M14.946 11.6552L14.0748 9.1198C14.4947 8.26135 14.7167 7.30662 14.7182 6.346C14.7207 4.6757 14.0745 3.09639 12.8985 1.89902C11.7222 0.701426 10.1548 0.0272747 8.48483 0.000819548C6.75323 -0.0265438 5.12561 0.632109 3.90197 1.85572C2.72207 3.0356 2.06763 4.59106 2.04692 6.25325C0.884009 7.12882 0.197611 8.49391 0.199867 9.95198C0.200951 10.6343 0.354526 11.3126 0.645532 11.9259L0.0454432 13.6722C-0.0577112 13.9724 0.0176405 14.2984 0.242113 14.5229C0.400082 14.6809 0.608354 14.765 0.822544 14.765C0.912661 14.765 1.00383 14.7501 1.09275 14.7195L2.83911 14.1194C3.45244 14.4104 4.13069 14.564 4.81302 14.5651C4.81548 14.5651 4.81782 14.5651 4.82028 14.5651C6.30007 14.565 7.67556 13.861 8.54793 12.6695C9.45576 12.6456 10.354 12.4259 11.166 12.0286L13.7015 12.8999C13.8071 12.9362 13.9154 12.9539 14.0225 12.9539C14.2771 12.9539 14.5246 12.8539 14.7123 12.6661C14.979 12.3994 15.0686 12.012 14.946 11.6552ZM4.82022 13.6723C4.81832 13.6723 4.8163 13.6723 4.81439 13.6723C4.21047 13.6713 3.61073 13.5225 3.08013 13.2417C2.97103 13.184 2.84295 13.1741 2.72629 13.2141L0.935571 13.8295L1.55089 12.0388C1.59097 11.9221 1.58101 11.794 1.5233 11.6849C1.24257 11.1543 1.09369 10.5546 1.09275 9.95064C1.09125 8.97918 1.46916 8.05841 2.13001 7.36893C2.34587 8.68483 2.97302 9.89743 3.94515 10.8523C4.91011 11.8001 6.12306 12.4035 7.43181 12.6008C6.74075 13.2819 5.80923 13.6723 4.82022 13.6723ZM14.0809 12.0348C14.0555 12.0602 14.0254 12.0671 13.9915 12.0554L11.2772 11.1227C11.2301 11.1065 11.1811 11.0985 11.1322 11.0985C11.0601 11.0985 10.9884 11.1159 10.9234 11.1503C10.1484 11.5603 9.27268 11.7777 8.39078 11.7791C8.38788 11.7791 8.38525 11.7791 8.38235 11.7791C5.42737 11.7791 2.98656 9.37867 2.93974 6.4244C2.91616 4.93656 3.48212 3.53825 4.53332 2.48704C5.58452 1.43584 6.98307 0.870088 8.47071 0.893526C11.4278 0.94043 13.8299 3.38575 13.8253 6.3446C13.8239 7.22649 13.6065 8.10227 13.1966 8.8772C13.1388 8.98627 13.1289 9.11436 13.169 9.23104L14.1016 11.9453C14.1133 11.9793 14.1063 12.0094 14.0809 12.0348Z" fill="black"/>
</svg>
