<svg width="32" height="26" viewBox="0 0 32 26" fill="none" xmlns="http://www.w3.org/2000/svg">
<path d="M29.4508 8.13942L23.3363 1.41999C22.1264 0.210094 20.1554 0.208493 18.9342 1.42974C18.5472 1.81675 18.2837 2.28022 18.1471 2.77464C16.9308 1.84282 15.1761 1.93552 14.0556 3.05599C13.6702 3.443 13.4067 3.90647 13.2669 4.39921C12.0505 3.47067 10.2958 3.56169 9.17699 4.68217C8.79806 5.0611 8.53789 5.51313 8.39641 5.99451L5.51476 3.11286C4.30487 1.90297 2.33391 1.90137 1.11266 3.12262C-0.0988289 4.33251 -0.0988289 6.30346 1.11266 7.51496L12.1838 18.5861L5.61721 19.6171C3.843 19.8708 2.50467 21.4124 2.50467 23.2061C2.50467 24.551 3.59907 25.6454 4.94396 25.6454H20.2774C22.6663 25.6454 24.9121 24.7152 26.6017 23.0256L29.1596 20.4676C30.8476 18.7812 31.7762 16.5371 31.7762 14.1514C31.7762 11.9235 30.9501 9.78838 29.4508 8.13942ZM28.0099 19.3179L25.4519 21.8759C24.0697 23.2581 22.232 24.0192 20.2773 24.0192H4.94389C4.49506 24.0192 4.13076 23.6549 4.13076 23.206C4.13076 22.2173 4.86903 21.3668 5.85939 21.2253L14.0148 19.9439C14.3173 19.8967 14.5661 19.6837 14.6621 19.3926C14.7563 19.1031 14.68 18.7828 14.4636 18.5665L2.26234 6.36521C1.68506 5.78793 1.68506 4.84796 2.27049 4.26093C2.55993 3.97309 2.93886 3.82834 3.31779 3.82834C3.69672 3.82834 4.07557 3.97309 4.36509 4.26253L12.501 12.3984C12.8181 12.7155 13.3336 12.7155 13.6507 12.3984C13.8085 12.239 13.8882 12.0309 13.8882 11.8228C13.8882 11.6146 13.8085 11.4065 13.6491 11.2471L10.3268 7.92476C9.74954 7.34748 9.74954 6.40912 10.3366 5.82208C10.9122 5.24641 11.8538 5.24641 12.4295 5.82208L15.7534 9.14601C16.0705 9.46312 16.5861 9.46312 16.9032 9.14601C17.0609 8.98662 17.1406 8.77851 17.1406 8.57033C17.1406 8.36215 17.061 8.15405 16.9016 7.99466L15.2054 6.29851C14.6281 5.72123 14.6281 4.78287 15.2152 4.19583C15.7908 3.62016 16.7324 3.62016 17.3081 4.19583L19.0123 5.90006C19.0156 5.90166 19.0139 5.90166 19.0139 5.90166L19.0155 5.90326C19.0171 5.90487 19.0171 5.90487 19.0171 5.90487C19.0187 5.90647 19.0187 5.90647 19.0187 5.90647H19.0203C19.0219 5.90647 19.0219 5.90807 19.0219 5.90807C19.3406 6.21054 19.8448 6.20406 20.1554 5.89183C20.4725 5.57472 20.4725 5.05919 20.1554 4.74208L20.0855 4.67218C19.8058 4.3925 19.6513 4.02005 19.6513 3.62488C19.6513 3.22972 19.8041 2.85894 20.0936 2.56951C20.6726 1.99383 21.6093 1.99543 22.1605 2.54184L28.249 9.23367C29.4735 10.5819 30.15 12.3285 30.15 14.1514C30.15 16.1029 29.3905 17.9372 28.0099 19.3179Z" fill="black"/>
</svg>
