<svg width="22" height="18" viewBox="0 0 22 18" fill="none" xmlns="http://www.w3.org/2000/svg">
<g opacity="0.5">
<path d="M20.5556 15.2222C20.5556 15.6937 20.3683 16.1459 20.0349 16.4793C19.7015 16.8127 19.2493 17 18.7778 17H2.77778C2.30628 17 1.8541 16.8127 1.5207 16.4793C1.1873 16.1459 1 15.6937 1 15.2222V5.44444C1 4.97295 1.1873 4.52076 1.5207 4.18737C1.8541 3.85397 2.30628 3.66667 2.77778 3.66667H6.33333L8.11111 1H13.4444L15.2222 3.66667H18.7778C19.2493 3.66667 19.7015 3.85397 20.0349 4.18737C20.3683 4.52076 20.5556 4.97295 20.5556 5.44444V15.2222Z" stroke="black" stroke-width="1.5" stroke-linecap="round" stroke-linejoin="round"/>
<path d="M10.7778 13.4444C12.7415 13.4444 14.3333 11.8525 14.3333 9.88887C14.3333 7.92519 12.7415 6.33331 10.7778 6.33331C8.81411 6.33331 7.22223 7.92519 7.22223 9.88887C7.22223 11.8525 8.81411 13.4444 10.7778 13.4444Z" stroke="black" stroke-width="1.5" stroke-linecap="round" stroke-linejoin="round"/>
</g>
</svg>
