<svg width="46" height="38" viewBox="0 0 46 38" fill="none" xmlns="http://www.w3.org/2000/svg">
<path d="M30.4858 36.0914V32.2933C30.4858 30.2787 29.6855 28.3466 28.2609 26.922C26.8363 25.4974 24.9042 24.6971 22.8896 24.6971H9.5962C7.58156 24.6971 5.64944 25.4974 4.22488 26.922C2.80031 28.3466 2 30.2787 2 32.2933V36.0914" stroke="black" stroke-width="3" stroke-linecap="round" stroke-linejoin="round"/>
<path d="M16.2432 17.1011C20.4384 17.1011 23.8394 13.7002 23.8394 9.5049C23.8394 5.30963 20.4384 1.90869 16.2432 1.90869C12.0479 1.90869 8.64697 5.30963 8.64697 9.5049C8.64697 13.7002 12.0479 17.1011 16.2432 17.1011Z" stroke="black" stroke-width="3" stroke-linecap="round" stroke-linejoin="round"/>
<path d="M38.082 11.4034V22.7977" stroke="black" stroke-width="3" stroke-linecap="round" stroke-linejoin="round"/>
<path d="M43.7791 17.1008H32.3848" stroke="black" stroke-width="3" stroke-linecap="round" stroke-linejoin="round"/>
</svg>
