<svg width="47" height="38" viewBox="0 0 47 38" fill="none" xmlns="http://www.w3.org/2000/svg">
<path d="M30.4858 36.1827V32.3846C30.4858 30.37 29.6855 28.4379 28.2609 27.0133C26.8363 25.5887 24.9042 24.7884 22.8896 24.7884H9.5962C7.58156 24.7884 5.64944 25.5887 4.22488 27.0133C2.80031 28.4379 2 30.37 2 32.3846V36.1827" stroke="black" stroke-width="3" stroke-linecap="round" stroke-linejoin="round"/>
<path d="M16.2432 17.1924C20.4384 17.1924 23.8394 13.7915 23.8394 9.5962C23.8394 5.40094 20.4384 2 16.2432 2C12.0479 2 8.64697 5.40094 8.64697 9.5962C8.64697 13.7915 12.0479 17.1924 16.2432 17.1924Z" stroke="black" stroke-width="3" stroke-linecap="round" stroke-linejoin="round"/>
<path d="M41.5901 16.8925L40.9994 16.4602L40.4088 16.8925L36 20.12V3.09131H46V20.1202L41.5901 16.8925Z" stroke="black" stroke-width="2"/>
</svg>
