<svg width="37" height="37" viewBox="0 0 37 37" fill="none" xmlns="http://www.w3.org/2000/svg">
<path d="M26.4703 15.6087L17.4462 23.5428C17.4341 23.5533 17.4221 23.5639 17.4116 23.5751C17.1195 23.8657 16.9584 24.2533 16.9584 24.6666C16.9584 25.5165 17.6494 26.2083 18.5 26.2083C18.9095 26.2083 19.2965 26.0487 19.6247 25.7205L27.5589 16.6963C27.8268 16.3914 27.8118 15.93 27.5243 15.6425C27.2366 15.3557 26.7775 15.3406 26.4703 15.6087Z" fill="currentColor"/>
<path d="M18.5 6.16663C8.29848 6.16663 0 14.4659 0 24.6666C0 26.5801 0.296578 28.4742 0.879256 30.2973C0.981656 30.6165 1.27823 30.8333 1.61398 30.8333H35.3861C35.7218 30.8333 36.0184 30.6165 36.1208 30.2973C36.7034 28.4742 37 26.5802 37 24.6666C37 14.4659 28.7015 6.16663 18.5 6.16663ZM33.1459 25.4375H35.4049C35.3453 26.7412 35.171 28.0352 34.814 29.2916H2.18604C1.82904 28.0351 1.65467 26.7412 1.59512 25.4375H3.85414C4.28022 25.4375 4.625 25.0927 4.625 24.6666C4.625 24.2405 4.28022 23.8958 3.85414 23.8958H1.58067C1.69492 21.3723 2.35246 18.9915 3.45581 16.871L5.4304 18.0114C5.55238 18.0814 5.68485 18.1145 5.81579 18.1145C6.08079 18.1145 6.34124 17.9768 6.48273 17.7291C6.69649 17.3603 6.57003 16.889 6.20119 16.676L4.23101 15.5381C5.55513 13.4757 7.30967 11.7213 9.37213 10.3973L10.51 12.3687C10.6515 12.6156 10.912 12.7541 11.177 12.7541C11.308 12.7541 11.4404 12.721 11.5624 12.6509C11.9312 12.4379 12.0577 11.9667 11.8439 11.5978L10.7038 9.62266C12.8244 8.51916 15.2054 7.86154 17.7291 7.74729V10.0208C17.7291 10.4468 18.0738 10.7916 18.4999 10.7916C18.926 10.7916 19.2708 10.4468 19.2708 10.0208V7.74729C21.7944 7.86154 24.1755 8.51916 26.2961 9.62266L25.156 11.5978C24.9422 11.9667 25.0687 12.4379 25.4375 12.6509C25.5595 12.721 25.6919 12.7541 25.8229 12.7541C26.0879 12.7541 26.3483 12.6155 26.4898 12.3687L27.6277 10.3973C29.6902 11.7213 31.4447 13.4757 32.7688 15.5381L30.7987 16.676C30.4298 16.889 30.3034 17.3603 30.5171 17.7291C30.6586 17.9768 30.9191 18.1145 31.1841 18.1145C31.315 18.1145 31.4475 18.0814 31.5695 18.0114L33.544 16.871C34.6474 18.9915 35.3049 21.3723 35.4192 23.8958H33.1457C32.7196 23.8958 32.3749 24.2405 32.3749 24.6666C32.375 25.0927 32.7198 25.4375 33.1459 25.4375Z" fill="currentColor"/>
</svg>
