<svg width="73" height="55" viewBox="0 0 73 55" fill="none" xmlns="http://www.w3.org/2000/svg">
<path opacity="0.5" d="M64.1138 53.5032L7.99973 53.5032C3.85759 53.5032 0.499726 50.1453 0.499726 46.0032L0.499729 8.10542C0.49973 3.96328 3.85759 0.605409 7.99973 0.60541L64.1138 0.605415C68.2559 0.605415 71.6138 3.96328 71.6138 8.10542L71.6138 46.0032C71.6138 50.1453 68.2559 53.5032 64.1138 53.5032Z" fill="#F1F2F7" stroke="#DCDCDC"/>
<path d="M33.0959 37.2652H25.5062C23.7618 37.2652 22.3438 35.8459 22.3438 34.1028V18.9232C22.3438 17.1801 23.7618 15.7608 25.5062 15.7608H44.4806C46.225 15.7608 47.643 17.1801 47.643 18.9232V23.9831C47.643 24.3335 47.3596 24.6155 47.0105 24.6155C46.6614 24.6155 46.378 24.3335 46.378 23.9831V18.9232C46.378 17.8771 45.5267 17.0258 44.4806 17.0258H25.5062C24.46 17.0258 23.6087 17.8771 23.6087 18.9232V34.1028C23.6087 35.1489 24.46 36.0002 25.5062 36.0002H33.0959C33.4451 36.0002 33.7284 36.2836 33.7284 36.6327C33.7284 36.9818 33.4451 37.2652 33.0959 37.2652Z" fill="#D15D36"/>
<path d="M47.0105 22.0855H22.9762C22.6271 22.0855 22.3438 21.8022 22.3438 21.453C22.3438 21.1039 22.6271 20.8206 22.9762 20.8206H47.0105C47.3596 20.8206 47.643 21.1039 47.643 21.453C47.643 21.8022 47.3596 22.0855 47.0105 22.0855Z" fill="#D15D36"/>
<path d="M28.036 19.5556C27.6869 19.5556 27.4036 19.2723 27.4036 18.9232V13.8633C27.4036 13.5142 27.6869 13.2308 28.036 13.2308C28.3852 13.2308 28.6685 13.5142 28.6685 13.8633V18.9232C28.6685 19.2723 28.3852 19.5556 28.036 19.5556Z" fill="#D15D36"/>
<path d="M41.9506 19.5556C41.6015 19.5556 41.3181 19.2723 41.3181 18.9232V13.8633C41.3181 13.5142 41.6015 13.2308 41.9506 13.2308C42.2997 13.2308 42.5831 13.5142 42.5831 13.8633V18.9232C42.5831 19.2723 42.2997 19.5556 41.9506 19.5556Z" fill="#D15D36"/>
<path d="M42.5544 40.878C46.5393 40.878 49.7697 37.6476 49.7697 33.6626C49.7697 29.6777 46.5393 26.4473 42.5544 26.4473C38.5695 26.4473 35.3391 29.6777 35.3391 33.6626C35.3391 37.6476 38.5695 40.878 42.5544 40.878Z" stroke="#D15D36" stroke-width="1.5" stroke-linecap="round" stroke-linejoin="round"/>
<path d="M42.5542 29.3334V33.6626L45.4403 35.1056" stroke="#D15D36" stroke-width="1.5" stroke-linecap="round" stroke-linejoin="round"/>
</svg>
