<svg class="moon icon-new icon-filter #C8C8C8" width="20px" height="20px" viewBox="0 0 1408 1024" xmlns="http://www.w3.org/2000/svg" style="display: inline-block; vertical-align: middle;"><path d="M0 109.714c0-55.545 45.027-100.571 100.571-100.571h1206.858c55.543 0 100.571 45.027 100.571 100.571s-45.029 100.571-100.571 100.571h-1206.858c-55.545 0-100.571-45.027-100.571-100.571zM268.19 512c0-55.545 45.027-100.571 100.571-100.571h670.476c55.543 0 100.571 45.027 100.571 100.571s-45.029 100.571-100.571 100.571h-670.476c-55.545 0-100.571-45.027-100.571-100.571zM569.905 813.714c-55.545 0-100.571 45.029-100.571 100.571s45.027 100.571 100.571 100.571h268.19c55.543 0 100.571-45.029 100.571-100.571s-45.029-100.571-100.571-100.571h-268.19z" style="fill: rgb(200, 200, 200);"></path></svg>