<svg width="42" height="43" viewBox="0 0 42 43" fill="none" xmlns="http://www.w3.org/2000/svg">
<path d="M41.8488 33.5251L39.4094 26.4258C40.5853 24.0222 41.2066 21.3489 41.2108 18.6592C41.2181 13.9823 39.4086 9.56027 36.1157 6.20765C32.8221 2.85437 28.4333 0.96675 23.7575 0.892676C18.9091 0.816058 14.3517 2.66029 10.9255 6.08641C7.62179 9.39006 5.78937 13.7453 5.73138 18.3995C2.47522 20.8511 0.553312 24.6733 0.559628 28.7559C0.562663 30.6664 0.992672 32.5656 1.80749 34.2829L0.127241 39.1726C-0.161591 40.0132 0.0493933 40.9259 0.677917 41.5544C1.12023 41.9968 1.70339 42.2323 2.30312 42.2323C2.55545 42.2323 2.81073 42.1906 3.0597 42.1051L7.9495 40.4248C9.66683 41.2396 11.5659 41.6696 13.4764 41.6727C13.4833 41.6727 13.4899 41.6727 13.4968 41.6727C17.6402 41.6725 21.4916 39.701 23.9342 36.3651C26.4761 36.2981 28.9911 35.6828 31.2648 34.5706L38.3641 37.01C38.6599 37.1116 38.9633 37.1612 39.2631 37.1612C39.9758 37.1612 40.6688 36.8813 41.1945 36.3555C41.9413 35.6086 42.192 34.5241 41.8488 33.5251ZM13.4966 39.1727C13.4913 39.1727 13.4856 39.1727 13.4803 39.1727C11.7893 39.1701 10.11 38.7533 8.62438 37.9672C8.31889 37.8057 7.96025 37.7777 7.6336 37.89L2.6196 39.6129L4.3425 34.5989C4.45472 34.2722 4.42683 33.9136 4.26523 33.6082C3.47921 32.1224 3.06232 30.4432 3.0597 28.7522C3.05551 26.0321 4.11364 23.4539 5.96402 21.5234C6.56842 25.2079 8.32447 28.6032 11.0464 31.2768C13.7483 33.9306 17.1446 35.6202 20.8091 36.1726C18.8741 38.0798 16.2658 39.1727 13.4966 39.1727ZM39.4266 34.5877C39.3554 34.6588 39.2711 34.6782 39.1763 34.6455L31.5763 32.034C31.4443 31.9886 31.3069 31.9662 31.1701 31.9662C30.9684 31.9662 30.7674 32.015 30.5856 32.1113C28.4156 33.2592 25.9635 33.868 23.4942 33.8718C23.4861 33.8718 23.4787 33.8718 23.4706 33.8718C15.1966 33.8718 8.36237 27.1507 8.23128 18.8787C8.16525 14.7127 9.74993 10.7975 12.6933 7.8541C15.6367 4.91074 19.5526 3.32663 23.718 3.39225C31.9979 3.52358 38.7236 10.3705 38.7108 18.6553C38.707 21.1246 38.0982 23.5767 36.9504 25.7465C36.7888 26.0519 36.7609 26.4106 36.8731 26.7373L39.4846 34.3373C39.5171 34.4325 39.4976 34.5168 39.4266 34.5877Z" fill="black"/>
<path d="M30.9166 12.0056H16.0229C15.3326 12.0056 14.7729 12.5653 14.7729 13.2556C14.7729 13.946 15.3326 14.5056 16.0229 14.5056H30.9166C31.6069 14.5056 32.1665 13.9459 32.1665 13.2556C32.1665 12.5653 31.6069 12.0056 30.9166 12.0056Z" fill="black"/>
<path d="M30.9166 17.1465H16.0229C15.3326 17.1465 14.7729 17.7062 14.7729 18.3965C14.7729 19.0868 15.3326 19.6465 16.0229 19.6465H30.9166C31.6069 19.6465 32.1665 19.0868 32.1665 18.3965C32.1665 17.7062 31.6069 17.1465 30.9166 17.1465Z" fill="black"/>
<path d="M25.1836 22.2874H16.0229C15.3326 22.2874 14.7729 22.8471 14.7729 23.5373C14.7729 24.2277 15.3326 24.7873 16.0229 24.7873H25.1835C25.8739 24.7873 26.4335 24.2276 26.4335 23.5373C26.4335 22.8471 25.874 22.2874 25.1836 22.2874Z" fill="black"/>
</svg>
