<svg width="25" height="24" viewBox="0 0 25 24" fill="none" xmlns="http://www.w3.org/2000/svg">
<path d="M18.408 22.2812V1.9375H20.3455V22.2812C20.3455 22.5382 20.4475 22.7846 20.6292 22.9663C20.8109 23.1479 21.0573 23.25 21.3142 23.25C21.5712 23.25 21.8176 23.1479 21.9992 22.9663C22.1809 22.7846 22.283 22.5382 22.283 22.2812V1.9375H23.2517C23.5087 1.9375 23.7551 1.83544 23.9367 1.65376C24.1184 1.47208 24.2205 1.22568 24.2205 0.96875C24.2205 0.711821 24.1184 0.465416 23.9367 0.28374C23.7551 0.102065 23.5087 0 23.2517 0H14.533C13.6425 -1.32699e-08 12.7606 0.175402 11.9379 0.516192C11.1152 0.856981 10.3676 1.35648 9.73791 1.98618C9.10822 2.61588 8.60871 3.36344 8.26792 4.18618C7.92713 5.00892 7.75173 5.89072 7.75173 6.78125C7.75173 7.67178 7.92713 8.55358 8.26792 9.37632C8.60871 10.1991 9.10822 10.9466 9.73791 11.5763C10.3676 12.206 11.1152 12.7055 11.9379 13.0463C12.7606 13.3871 13.6425 13.5625 14.533 13.5625H16.4705V22.2812C16.4705 22.5382 16.5725 22.7846 16.7542 22.9663C16.9359 23.1479 17.1823 23.25 17.4392 23.25C17.6962 23.25 17.9426 23.1479 18.1242 22.9663C18.3059 22.7846 18.408 22.5382 18.408 22.2812ZM4.56261 9.40462C4.65268 9.31456 4.72412 9.20763 4.77287 9.08994C4.82162 8.97226 4.84671 8.84613 4.84671 8.71875C4.84671 8.59137 4.82162 8.46524 4.77287 8.34756C4.72412 8.22987 4.65268 8.12294 4.56261 8.03288C4.47254 7.9428 4.36561 7.87136 4.24792 7.82261C4.13024 7.77387 4.00411 7.74878 3.87673 7.74878C3.74935 7.74878 3.62322 7.77387 3.50554 7.82261C3.38786 7.87136 3.28093 7.9428 3.19086 8.03288L0.284607 10.9391C0.194391 11.0291 0.122814 11.136 0.0739763 11.2537C0.0251388 11.3714 0 11.4976 0 11.625C0 11.7524 0.0251388 11.8786 0.0739763 11.9963C0.122814 12.114 0.194391 12.2209 0.284607 12.3109L3.19086 15.2171C3.28093 15.3072 3.38786 15.3786 3.50554 15.4274C3.62322 15.4761 3.74935 15.5012 3.87673 15.5012C4.00411 15.5012 4.13024 15.4761 4.24792 15.4274C4.36561 15.3786 4.47254 15.3072 4.56261 15.2171C4.65268 15.1271 4.72412 15.0201 4.77287 14.9024C4.82162 14.7848 4.84671 14.6586 4.84671 14.5312C4.84671 14.4039 4.82162 14.2777 4.77287 14.1601C4.72412 14.0424 4.65268 13.9354 4.56261 13.8454L2.34029 11.625L4.56261 9.40462Z" fill="#D15D36"/>
</svg>
