<svg width="152" height="188" viewBox="0 0 152 188" fill="none" xmlns="http://www.w3.org/2000/svg">
<path d="M110.864 14.3719H118.207C119.728 14.3719 120.961 13.1389 120.961 11.618C120.961 10.0971 119.728 8.86414 118.207 8.86414H110.864C109.342 8.86414 108.11 10.0971 108.11 11.618C108.11 13.1389 109.342 14.3719 110.864 14.3719Z" fill="#BABABA"/>
<path d="M74.1455 14.3719H81.4888C83.01 14.3719 84.2427 13.1389 84.2427 11.618C84.2427 10.0971 83.01 8.86414 81.4888 8.86414H74.1455C72.6246 8.86414 71.3916 10.0971 71.3916 11.618C71.3916 13.1389 72.6242 14.3719 74.1455 14.3719Z" fill="#BABABA"/>
<path d="M129.223 14.3719H136.566C138.088 14.3719 139.32 13.1389 139.32 11.618C139.32 10.0971 138.088 8.86414 136.566 8.86414H129.223C127.701 8.86414 126.469 10.0971 126.469 11.618C126.469 13.1389 127.701 14.3719 129.223 14.3719Z" fill="#BABABA"/>
<path d="M92.5044 14.3719H99.8484C101.37 14.3719 102.602 13.1389 102.602 11.618C102.602 10.0971 101.37 8.86414 99.8484 8.86414H92.5044C90.9831 8.86414 89.7505 10.0971 89.7505 11.618C89.7505 13.1389 90.9831 14.3719 92.5044 14.3719Z" fill="#BABABA"/>
<path d="M55.7866 14.3719H63.1303C64.6511 14.3719 65.8841 13.1389 65.8841 11.618C65.8841 10.0971 64.6511 8.86414 63.1303 8.86414H55.7866C54.2657 8.86414 53.0327 10.0971 53.0327 11.618C53.0327 13.1389 54.2653 14.3719 55.7866 14.3719Z" fill="#BABABA"/>
<path d="M119.07 148.38C120.591 148.38 121.824 147.147 121.824 145.626C121.824 144.105 120.591 142.872 119.07 142.872H111.727V98.3683C111.727 97.2542 111.056 96.25 110.027 95.8241C108.996 95.3978 107.813 95.6335 107.025 96.4211L92.1562 111.294L78.7081 97.8428C77.8412 96.9752 76.6879 96.4971 75.4611 96.4971C74.2347 96.4971 73.0817 96.9748 72.2141 97.8421L54.3183 115.738L43.7111 105.128C42.8438 104.26 41.6909 103.783 40.4641 103.783C39.2374 103.783 38.0844 104.26 37.2167 105.128L28.6202 113.727L17.5291 102.636C15.9866 101.094 13.5499 100.853 11.7357 102.062L1.22688 109.067C0.460569 109.578 0.000488281 110.438 0.000488281 111.358V142.897C0.000488281 144.418 1.23349 145.651 2.75436 145.651C4.27524 145.651 5.50824 144.418 5.50824 142.897V112.832L14.1657 107.062L26.6734 119.569C27.1901 120.086 27.8903 120.376 28.621 120.376C29.3513 120.376 30.0519 120.085 30.5685 119.569L40.4645 109.67L52.3708 121.58C52.8874 122.096 53.5876 122.386 54.3183 122.386C55.0486 122.386 55.7492 122.096 56.2655 121.58L75.4611 102.385L90.2094 117.136C90.7256 117.652 91.4262 117.942 92.1569 117.942C92.8876 117.942 93.5878 117.652 94.1045 117.136L106.22 105.018V159.596C100.643 160.854 96.464 165.845 96.464 171.797C96.464 173.163 96.6872 174.478 97.0941 175.71H6.42987C5.92169 175.71 5.50824 175.296 5.50824 174.788V156.493C5.50824 154.972 4.27524 153.739 2.75436 153.739C1.23349 153.739 0.000488281 154.972 0.000488281 156.493V174.788C0.000488281 178.333 2.88471 181.217 6.42987 181.217H100.756C102.956 183.138 105.83 184.306 108.973 184.306C115.871 184.306 121.482 178.695 121.482 171.797C121.482 165.845 117.303 160.854 111.727 159.596V148.38H119.07V148.38ZM115.975 171.797C115.975 175.657 112.833 178.798 108.973 178.798C105.112 178.798 101.971 175.657 101.971 171.797C101.971 167.936 105.112 164.795 108.973 164.795C112.833 164.795 115.975 167.936 115.975 171.797Z" fill="#BABABA"/>
<path d="M42.7192 19.6641C44.2401 19.6641 45.4731 18.4311 45.4731 16.9102V14.2816C46.6536 13.9709 47.5245 12.8962 47.5245 11.618C47.5245 10.0971 46.2915 8.86414 44.7707 8.86414H42.7192C41.1983 8.86414 39.9653 10.0971 39.9653 11.618V16.9102C39.9653 18.4311 41.1983 19.6641 42.7192 19.6641Z" fill="#BABABA"/>
<path d="M148.938 99.304C147.417 99.304 146.184 100.537 146.184 102.058V109.402C146.184 110.922 147.417 112.155 148.938 112.155C150.459 112.155 151.692 110.922 151.692 109.402V102.058C151.692 100.537 150.459 99.304 148.938 99.304Z" fill="#BABABA"/>
<path d="M148.938 117.663C147.417 117.663 146.184 118.896 146.184 120.417V127.761C146.184 129.282 147.417 130.515 148.938 130.515C150.459 130.515 151.692 129.282 151.692 127.761V120.417C151.692 118.896 150.459 117.663 148.938 117.663Z" fill="#BABABA"/>
<path d="M148.938 80.9448C147.417 80.9448 146.184 82.1778 146.184 83.6986V91.0423C146.184 92.5632 147.417 93.7962 148.938 93.7962C150.459 93.7962 151.692 92.5632 151.692 91.0423V83.6986C151.692 82.1778 150.459 80.9448 148.938 80.9448Z" fill="#BABABA"/>
<path d="M148.938 62.5856C147.417 62.5856 146.184 63.8186 146.184 65.3395V72.6831C146.184 74.204 147.417 75.437 148.938 75.437C150.459 75.437 151.692 74.204 151.692 72.6831V65.3395C151.692 63.8186 150.459 62.5856 148.938 62.5856Z" fill="#BABABA"/>
<path d="M148.938 25.8672C147.417 25.8672 146.184 27.1003 146.184 28.6211V35.9648C146.184 37.4857 147.417 38.7187 148.938 38.7187C150.459 38.7187 151.692 37.4857 151.692 35.9648V28.6211C151.692 27.1003 150.459 25.8672 148.938 25.8672Z" fill="#BABABA"/>
<path d="M148.938 44.2264C147.417 44.2264 146.184 45.4594 146.184 46.9803V54.324C146.184 55.8449 147.417 57.0779 148.938 57.0779C150.459 57.0779 151.692 55.8449 151.692 54.324V46.9803C151.692 45.4594 150.459 44.2264 148.938 44.2264Z" fill="#BABABA"/>
<path d="M148.938 8.86414H147.582C146.061 8.86414 144.828 10.0971 144.828 11.618C144.828 12.6285 145.372 13.5123 146.184 13.9911V17.6057C146.184 19.1265 147.417 20.3595 148.938 20.3595C150.459 20.3595 151.692 19.1265 151.692 17.6057V11.618C151.692 10.0971 150.459 8.86414 148.938 8.86414Z" fill="#BABABA"/>
<path d="M137.429 142.872H130.085C128.564 142.872 127.331 144.105 127.331 145.626C127.331 147.147 128.564 148.38 130.085 148.38H137.429C138.95 148.38 140.182 147.147 140.182 145.626C140.182 144.105 138.949 142.872 137.429 142.872Z" fill="#BABABA"/>
<path d="M148.938 136.022C147.417 136.022 146.184 137.255 146.184 138.776V144.051C145.873 144.498 145.69 145.04 145.69 145.626C145.69 147.147 146.923 148.38 148.444 148.38H148.938C150.459 148.38 151.692 147.147 151.692 145.626V138.777C151.692 137.255 150.459 136.022 148.938 136.022Z" fill="#BABABA"/>
<path d="M1.45478 101.19C2.35034 101.669 3.43647 101.616 4.28209 101.053L16.0848 93.1822L25.3738 102.472C26.2411 103.339 27.3945 103.816 28.6209 103.816C29.8476 103.816 31.0006 103.338 31.8679 102.471L40.4644 93.8718L51.0712 104.479C51.9664 105.374 53.1421 105.821 54.3178 105.821C55.4935 105.821 56.6693 105.374 57.5645 104.479L75.4606 86.5858L88.9094 100.035C89.7767 100.902 90.9297 101.38 92.1561 101.38C93.3828 101.38 94.5358 100.902 95.4031 100.035L110.92 84.5174C111.437 84.0012 111.727 83.3006 111.727 82.5703V66.2695C111.727 64.7486 110.494 63.5156 108.973 63.5156C107.451 63.5156 106.219 64.7486 106.219 66.2695V81.4294L92.1561 95.4922L77.4081 80.7439C76.3323 79.6684 74.5893 79.6684 73.5138 80.7439L54.3182 99.9366L42.4112 88.0299C41.8945 87.5133 41.1943 87.2232 40.4636 87.2232C39.7329 87.2232 39.0327 87.5137 38.5161 88.0299L28.6201 97.9288L18.3827 87.6914C17.4541 86.7631 15.9997 86.6192 14.9076 87.3473L5.50812 93.6151V73.2269H30.6091C34.1543 73.2269 37.0385 70.3427 37.0385 66.7972V41.6961H58.4354C59.9563 41.6961 61.1893 40.4631 61.1893 38.9423C61.1893 37.4214 59.9563 36.1884 58.4354 36.1884H45.3126C45.4147 35.9005 45.4731 35.5921 45.4731 35.2697V27.926C45.4731 26.4052 44.2401 25.1721 42.7192 25.1721C41.1984 25.1721 39.9654 26.4052 39.9654 27.926V35.2697C39.9654 35.5924 40.0237 35.9009 40.1258 36.1884H34.2847C33.5606 36.1902 32.8508 36.4836 32.3375 36.9951L0.806702 68.5259C0.295215 69.0392 0.0022031 69.749 0 70.473V98.7616C0 99.7772 0.559221 100.711 1.45478 101.19ZM31.5308 66.7972C31.5308 67.3054 31.1173 67.7192 30.6091 67.7192H9.40247L31.5308 45.5909V66.7972Z" fill="#BABABA"/>
<path d="M72.0312 41.6958H105.297C105.805 41.6958 106.219 42.1092 106.219 42.6178V52.6738C106.219 54.1947 107.452 55.4277 108.973 55.4277C110.494 55.4277 111.727 54.1947 111.727 52.6738V42.6178C111.727 39.0726 108.842 36.188 105.297 36.188H72.0312C70.5103 36.188 69.2773 37.421 69.2773 38.9419C69.2773 40.4628 70.5103 41.6958 72.0312 41.6958Z" fill="#BABABA"/>
<path d="M11.7263 36.0999C17.6747 36.0999 22.5142 31.2604 22.5142 25.312C22.5142 19.3637 17.6747 14.5242 11.7263 14.5242C5.77795 14.5242 0.938477 19.3637 0.938477 25.312C0.938477 31.2604 5.77795 36.0999 11.7263 36.0999ZM11.7263 20.032C14.6377 20.032 17.0064 22.4007 17.0064 25.312C17.0064 28.2234 14.6377 30.5921 11.7263 30.5921C8.81493 30.5921 6.44623 28.2234 6.44623 25.312C6.44623 22.4007 8.81493 20.032 11.7263 20.032Z" fill="#BABABA"/>
<path d="M137.819 176.467C136.744 175.392 135 175.392 133.925 176.467L132.458 177.934L130.991 176.467C129.915 175.392 128.172 175.392 127.096 176.467C126.021 177.543 126.021 179.286 127.096 180.362L128.563 181.829L127.096 183.296C126.021 184.371 126.021 186.115 127.096 187.19C127.634 187.728 128.339 187.997 129.044 187.997C129.748 187.997 130.453 187.728 130.991 187.19L132.458 185.723L133.925 187.19C134.463 187.728 135.168 187.997 135.873 187.997C136.577 187.997 137.282 187.728 137.82 187.19C138.896 186.115 138.896 184.371 137.82 183.296L136.353 181.829L137.82 180.362C138.895 179.287 138.895 177.543 137.819 176.467Z" fill="#BABABA"/>
<path d="M20.4199 11.5291C20.9574 12.0667 21.6624 12.3358 22.3671 12.3358C23.0717 12.3358 23.7767 12.067 24.3142 11.5291L25.7811 10.0622L27.248 11.5291C27.7856 12.0667 28.4906 12.3358 29.1952 12.3358C29.8998 12.3358 30.6048 12.067 31.1424 11.5291C32.2179 10.4536 32.2179 8.70987 31.1424 7.63475L29.6755 6.16786L31.1424 4.70096C32.2179 3.62548 32.2179 1.88172 31.1424 0.80661C30.0669 -0.26887 28.3231 -0.26887 27.248 0.80661L25.7811 2.27351L24.3142 0.80661C23.2388 -0.26887 21.495 -0.26887 20.4199 0.80661C19.3444 1.88209 19.3444 3.62584 20.4199 4.70096L21.8868 6.16786L20.4199 7.63475C19.3444 8.70987 19.3444 10.4536 20.4199 11.5291Z" fill="#BABABA"/>
</svg>
