<svg width="118" height="96" viewBox="0 0 118 96" fill="none" xmlns="http://www.w3.org/2000/svg">
<path d="M60.5567 0.0680237C52.5284 0.0680237 44.7931 2.93897 38.7775 8.15213C33.4085 12.8045 29.7357 19.0218 28.2813 25.8479C28.175 25.8468 28.0699 25.8479 27.9648 25.8479C12.5458 25.8482 0 38.1811 0 53.3388C0 68.4977 12.5458 80.8296 27.9648 80.8296H38.2283C39.6178 80.8296 40.745 79.7225 40.745 78.3561C40.745 76.9898 39.6179 75.8821 38.2283 75.8821H27.9648C15.3199 75.8821 5.0327 65.7695 5.0327 53.3386C5.0327 40.9077 15.3198 30.7951 27.9648 30.7951C28.6385 30.7951 29.3505 30.8311 30.1422 30.9042C31.4839 31.0266 32.689 30.0894 32.8717 28.7753C33.7779 22.2458 37.0571 16.2404 42.1057 11.8648C47.2015 7.44873 53.7542 5.01672 60.5562 5.01672C75.9823 5.01672 88.5328 17.3545 88.5328 32.5191C88.5328 33.0651 88.4293 34.4772 88.4293 34.4772C88.377 35.2049 88.6541 35.9183 89.1869 36.4263C89.719 36.9345 90.4517 37.185 91.1914 37.1127C91.8606 37.0466 92.5357 37.0129 93.1981 37.0129C104.099 37.0129 112.967 45.7309 112.967 56.4465C112.967 67.1622 104.098 75.8799 93.1981 75.8799H81.9277C80.5382 75.8799 79.4114 76.9876 79.4114 78.354C79.4114 79.7204 80.5382 80.8275 81.9277 80.8275H93.1981C106.874 80.8275 118 69.8903 118 56.4467C118 43.1229 107.071 32.2607 93.5627 32.0681C93.3163 14.3828 78.6048 0.0680237 60.5567 0.0680237ZM60.0778 54.7597C59.0879 54.7597 58.0984 55.106 57.3091 55.7995L48.1556 63.839C47.1189 64.7495 47.0292 66.313 47.9552 67.3321C48.8808 68.3505 50.4724 68.4389 51.5086 67.5285L57.5615 62.2128V92.6466C57.5615 94.0129 58.6883 95.1202 60.0782 95.1202C61.4677 95.1202 62.5945 94.0129 62.5945 92.6466V62.2116L68.6479 67.5274C69.6845 68.4379 71.2755 68.3496 72.2012 67.331C73.127 66.3119 73.0373 64.7479 72.0004 63.8379L62.8466 55.7988C62.0575 55.1058 61.0675 54.7597 60.0778 54.7597Z" fill="#D15D36"/>
</svg>
